<?xml version="1.0" standalone="no"?><!DOCTYPE svg PUBLIC "-//W3C//DTD SVG 1.1//EN" "http://www.w3.org/Graphics/SVG/1.1/DTD/svg11.dtd"><svg class="icon" width="200px" height="200.00px" viewBox="0 0 1024 1024" version="1.1" xmlns="http://www.w3.org/2000/svg"><path d="M832 944h-80s-80-65.008-80-128c0-85.984 80-128 80-128H336s80 47.008 80 128-80 128-80 128h-80a32 32 0 0 0 0 64h576a32 32 0 0 0 0-64z" fill="#888E98" /><path d="M16 160h640v128H16z" fill="#BBA088" /><path d="M304 480v32H16s21.232 176 176 176h592c210.832 0 224-208 224-208H304z" fill="#888E98" /><path d="M544 880a112 112 0 0 0-112 112h224a112 112 0 0 0-112-112z" fill="#555C66" /><path d="M704 16h-48v400h160V176z" fill="#D8EFFC" /><path d="M352 688l48 64h288l48-64z" fill="#555C66" /><path d="M922.288 363.44l65.152-65.152a15.344 15.344 0 1 0-21.712-21.712l-65.152 65.152a15.344 15.344 0 1 0 21.712 21.712zM144 208H80a16 16 0 1 0 0 32h64a16 16 0 1 0 0-32z m768 224h96a16 16 0 1 0 0-32h-96a16 16 0 1 0 0 32zM528 208H304a16 16 0 1 0 0 32h224a16 16 0 1 0 0-32z m480 256H304a16 16 0 0 0-16 16v16H16a16 16 0 0 0-14.608 22.416C12.592 622.72 100.72 704 208 704h82.48c60.768 1.328 109.648 50.912 109.648 112s-48.88 110.672-109.648 112H256a48 48 0 1 0 0 96h576a48 48 0 1 0 0-96h-34.464c-60.784-1.328-109.664-50.912-109.664-112s48.88-110.672 109.664-112H800c123.712 0 224-100.288 224-224a16 16 0 0 0-16-16zM288 672h-80c-86.272 0-157.888-62.096-172.96-144H288v144z m128 320H256a16 16 0 1 1 0-32h164.192A128.064 128.064 0 0 0 416 992z m32 0a96 96 0 0 1 192 0H448z m384-32a16 16 0 1 1 0 32H672c0-11.056-1.552-21.744-4.208-32H832z m-122.416-32h-54.848c-22.144-38.224-63.392-64-110.736-64s-88.592 25.776-110.736 64h-54.848A143.648 143.648 0 0 0 432 816a143.152 143.152 0 0 0-8.24-48h240.464a143.952 143.952 0 0 0 45.36 160zM680.48 736H407.52a144.992 144.992 0 0 0-29.088-32h331.152a144.672 144.672 0 0 0-29.104 32zM800 672H320V496h671.184C983.04 594.528 900.64 672 800 672zM32 304h608v96a32 32 0 0 0 32 32h128a32 32 0 0 0 32-32V176v-16l-96-128c-14.496-18.672-20.832-32-48-32h-16a32 32 0 0 0-32 32v112H32a32 32 0 0 0-32 32v96a32 32 0 0 0 32 32z m640-128V32h24l104 144v224h-128V176zM32 176h608v32h-48a16 16 0 1 0 0 32h48v32H32v-96z m336 384h528a16 16 0 1 0 0-32H368a16 16 0 1 0 0 32z" fill="#2B3139" /></svg>