<?xml version="1.0" standalone="no"?><!DOCTYPE svg PUBLIC "-//W3C//DTD SVG 1.1//EN" "http://www.w3.org/Graphics/SVG/1.1/DTD/svg11.dtd"><svg class="icon" width="200px" height="200.00px" viewBox="0 0 1024 1024" version="1.1" xmlns="http://www.w3.org/2000/svg"><path d="M975.184 576c0-144.592-129.632-416-415.184-416-165.28 0-288 112-288 112v107.904A382.08 382.08 0 0 0 208 592v80h432l64 64h272V576h-0.816z" fill="#FDE79B" /><path d="M528 608h-96a48 48 0 0 0-48 48v16h150.944H576v-16a48 48 0 0 0-48-48z" fill="#FDE79B" /><path d="M896 736h-128l144 144 64-64z" fill="#B6C0D3" /><path d="M1008 720h-16v-128c0-5.36-0.192-10.688-0.4-16H992C992 337.408 798.592 144 560 144c-118.576 0-225.936 47.84-304 125.184V368c0 1.92 0.464 3.696 1.088 5.392A398.064 398.064 0 0 0 192 592v64H16a16 16 0 1 0 0 32h616.48l59.264 59.264c3.424 3.424 7.936 4.928 12.416 4.736h56.32l139.264 139.264c5.008 4.992 12.368 6.048 18.48 3.328 2.32-0.784 4.512-1.952 6.352-3.792l62.688-62.704a16.32 16.32 0 0 0 4.768-12.144 16.544 16.544 0 0 0-4.784-12.208L935.52 752H1008a16 16 0 1 0 0-32zM560 176a397.92 397.92 0 0 1 194.688 50.608A398.032 398.032 0 0 0 592 192c-121.696 0-230.64 54.432-304 140.192V288c0-1.456-0.464-2.752-0.816-4.08C358.624 217.072 454.448 176 560 176zM400 656a32 32 0 0 1 32-32h96a32 32 0 0 1 32 32H400z m552.544 160.064l-40.48 40.48L807.52 752h80.976l64.048 64.064zM736 624h224v32H800a16 16 0 1 0 0 32h160v32h-62.848a18.384 18.384 0 0 0-1.328 0h-126.672a18.384 18.384 0 0 0-1.328 0h-56.32l-59.264-59.264a16.368 16.368 0 0 0-12.416-4.736H592a64 64 0 0 0-64-64h-96a64 64 0 0 0-64 64h-144v-64c0-203.232 164.768-368 368-368s368 164.768 368 368H736a16 16 0 1 0 0 32z m101.504-234.496c12.288-12.288-0.304-26.704-0.304-26.704C775.888 297.216 688.864 256 592 256s-183.888 41.216-245.2 106.8c0 0-11.104 13.888-0.304 24.704 9.648 9.648 22.928-2.08 22.928-2.08C424.944 325.648 503.984 288 592 288s167.056 37.648 222.576 97.424c0 0 12.896 14.112 22.928 4.08z" fill="#2B3139" /></svg>