<?xml version="1.0" standalone="no"?><!DOCTYPE svg PUBLIC "-//W3C//DTD SVG 1.1//EN" "http://www.w3.org/Graphics/SVG/1.1/DTD/svg11.dtd"><svg class="icon" width="200px" height="200.00px" viewBox="0 0 1024 1024" version="1.1" xmlns="http://www.w3.org/2000/svg"><path d="M848 176h160v64H848z" fill="#FFFFFF" /><path d="M528 16h224v992H528z" fill="#F37F80" /><path d="M928 16a80 80 0 0 0-80 80v80h86.832H1008V96a80 80 0 0 0-80-80z" fill="#F9C5DA" /><path d="M848 800l80 192 80-192z" fill="#F2CAA8" /><path d="M848 240v560s39.008-8.992 80 32c38.08-38.08 80-32 80-32V240H848z" fill="#7AA4D7" /><path d="M592 800a16 16 0 0 0 16-16V80a16 16 0 1 0-32 0v704a16 16 0 0 0 16 16z m144-800H544a32 32 0 0 0-32 32v960a32 32 0 0 0 32 32h192a32 32 0 0 0 32-32V32a32 32 0 0 0-32-32z m0 64h-16a16 16 0 1 0 0 32h16v32h-16a16 16 0 1 0 0 32h16v32h-16a16 16 0 1 0 0 32h16v32h-16a16 16 0 1 0 0 32h16v32h-16a16 16 0 1 0 0 32h16v32h-16a16 16 0 1 0 0 32h16v32h-16a16 16 0 1 0 0 32h16v32h-16a16 16 0 1 0 0 32h16v32h-16a16 16 0 1 0 0 32h16v32h-16a16 16 0 1 0 0 32h16v32h-16a16 16 0 1 0 0 32h16v32h-16a16 16 0 1 0 0 32h16v32h-16a16 16 0 1 0 0 32h16v32h-16a16 16 0 1 0 0 32h16v64H544V32h192v32z m192-64a96 96 0 0 0-96 96v736l96 192 96-192V96a96 96 0 0 0-96-96z m18.976 912h-37.936l-44.864-94.624c24.224 3.584 49.488 14.64 63.824 30.624 14.336-15.984 39.6-27.04 63.824-30.624L946.976 912zM992 784.704c-24.032 1.92-46.016 8.528-64 22.976-17.984-14.432-39.968-21.04-64-22.976V256h128v528.704zM992 224h-128v-32h128v32z m0-64h-128V96a64 64 0 0 1 128 0v64z m-64 592a16 16 0 0 0 16-16V304a16 16 0 1 0-32 0v432a16 16 0 0 0 16 16z" fill="#2B3139" /><path d="M16 16v992h736L16 16z m160 480l256 352H176V496z" fill="#BDE0F7" /><path d="M767.808 1007.072c-0.064-1.056-0.336-2.064-0.624-3.104s-0.512-2.064-0.992-3.008c-0.144-0.304-0.128-0.624-0.304-0.928L30.464 9.344A15.68 15.68 0 0 0 25.6 3.536C25.184 3.184 24.752 2.96 24.32 2.656a16.112 16.112 0 0 0-3.328-1.648 15.472 15.472 0 0 0-3.808-0.768C16.768 0.208 16.416 0 16 0 15.792 0 15.632 0.112 15.44 0.112a14.72 14.72 0 0 0-4.784 0.96C10.24 1.232 9.792 1.328 9.392 1.52 8.896 1.728 8.352 1.744 7.872 2.032 6.992 2.56 6.4 3.36 5.664 4.032 5.184 4.432 4.72 4.784 4.304 5.248 3.408 6.256 2.72 7.328 2.096 8.512 1.712 9.216 1.344 9.888 1.072 10.656a16.992 16.992 0 0 0-0.704 3.456C0.304 14.768 0 15.328 0 16v992a16 16 0 0 0 16 16h736c0.208 0 0.368-0.112 0.56-0.112a14.752 14.752 0 0 0 4.784-0.976c0.432-0.16 0.864-0.256 1.264-0.432 0.496-0.224 1.024-0.24 1.52-0.512 0.896-0.528 1.472-1.328 2.224-2 0.464-0.4 0.944-0.752 1.344-1.2a14.928 14.928 0 0 0 2.208-3.28c0.384-0.704 0.768-1.376 1.024-2.144 0.384-1.12 0.56-2.272 0.704-3.472 0.064-0.64 0.368-1.2 0.368-1.872 0-0.336-0.176-0.592-0.192-0.928zM32 992v-32h16a16 16 0 1 0 0-32H32v-32h16a16 16 0 1 0 0-32H32v-32h16a16 16 0 1 0 0-32H32v-32h16a16 16 0 1 0 0-32H32v-32h16a16 16 0 1 0 0-32H32v-32h16a16 16 0 1 0 0-32H32v-32h16a16 16 0 1 0 0-32H32v-32h16a16 16 0 1 0 0-32H32v-32h16a16 16 0 1 0 0-32H32v-32h16a16 16 0 1 0 0-32H32v-32h16a16 16 0 1 0 0-32H32v-32h16a16 16 0 1 0 0-32H32v-32h16a16 16 0 1 0 0-32H32V64.24L720.72 992H32z m144-128h256a16 16 0 0 0 14.72-22.256 16.176 16.176 0 0 0-3.568-5.456L187.184 484.336a16.144 16.144 0 0 0-22.848 0c-3.68 3.68-4.96 8.64-4.336 13.424V848a16 16 0 0 0 16 16z m16-318.784L400.544 832H192V545.216z" fill="#2B3139" /></svg>