<?xml version="1.0" standalone="no"?><!DOCTYPE svg PUBLIC "-//W3C//DTD SVG 1.1//EN" "http://www.w3.org/Graphics/SVG/1.1/DTD/svg11.dtd"><svg class="icon" width="200px" height="200.00px" viewBox="0 0 1024 1024" version="1.1" xmlns="http://www.w3.org/2000/svg"><path d="M16.12112 240v160l160-160H16.12112z m848 192h144v-144l-144 144z m-176 0l192-192H704.12112L512.12112 432h176z m-352 0l192-192H352.12112L160.12112 432h176zM16.12112 496v160l160-160H16.12112z m992 192v-144l-144 144h144zM704.12112 496L512.12112 688h176l192-192H704.12112z m-352 0L160.12112 688h176l192-192H352.12112zM144.12112 176c44.192 0 80-35.808 80-80s-35.808-80-80-80-80 35.808-80 80 35.808 80 80 80z m736 0c44.192 0 80-35.808 80-80s-35.808-80-80-80-80 35.808-80 80 35.808 80 80 80z" fill="#F27070" /><path d="M848.12112 752H176.12112v-64H112.12112v320h64v-64h672v64h64V704h-64v48zM176.12112 176H112.12112v64h64v-64z m0 256H112.12112v64h64v-64z m672 64h64v-64h-64v64z m0-320v64h64v-64h-64z" fill="#CCB39D" /><path d="M208.12112 880a16 16 0 0 0 16 16h256a16 16 0 1 0 0-32H224.12112a16 16 0 0 0-16 16z m784-432a32 32 0 0 0 32-32V256a32 32 0 0 0-32-32h-64v-44.96A95.872 95.872 0 0 0 976.12112 96a96 96 0 0 0-192 0 95.84 95.84 0 0 0 48 83.04V224H192.12112v-44.96A95.872 95.872 0 0 0 240.12112 96 96 96 0 0 0 48.12112 96a95.84 95.84 0 0 0 48 83.04V224H32.12112a32 32 0 0 0-32 32v142.736a14.656 14.656 0 0 0 0 3.744V416a32 32 0 0 0 32 32h64v32H32.12112a32 32 0 0 0-32 32v142.736a14.656 14.656 0 0 0 0 3.744V672a32 32 0 0 0 32 32h64v304a16 16 0 0 0 16 16h64a16 16 0 0 0 16-16v-48h640v48a16 16 0 0 0 16 16h64a16 16 0 0 0 16-16V704h64a32 32 0 0 0 32-32V512a32 32 0 0 0-32-32h-64v-32h64z m0-192v25.904L858.02512 416h-132.768l160-160H992.12112z m-96 192v32h-32v-32h32z m-406.096 64l-160 160h-132.768l160-160h132.768zM192.12112 480v-32h640v32H192.12112z m341.136 32h132.768l-160 160h-132.768l160-160z m176 0h132.768l-160 160h-132.768l160-160zM864.12112 224v-33.44c5.216 0.88 10.528 1.44 16 1.44s10.784-0.56 16-1.44V224h-32z m-48-128a64 64 0 1 1 128 0 64 64 0 0 1-128 0z m25.904 160l-160 160h-132.768l160-160h132.768z m-176 0l-160 160h-132.768l160-160h132.768z m-176 0l-160 160h-132.768l160-160h132.768zM80.12112 96a64 64 0 1 1 128 0 64 64 0 0 1-128 0z m80 94.56V224H128.12112v-33.44c5.216 0.88 10.544 1.44 16 1.44s10.784-0.56 16-1.44zM32.12112 256h105.904L32.12112 361.904V256z m0 160v-10.864L181.25712 256h132.768l-160 160H32.12112z m128 32v32H128.12112v-32h32z m-128 64h105.904L32.12112 617.904V512z m128 480H128.12112V704h32v288z m-6.096-320H32.12112v-10.864L181.25712 512h132.768l-160 160zM832.12112 800H576.12112a16 16 0 1 0 0 32h256v96H192.12112v-96h80a16 16 0 1 0 0-32h-80v-32h640v32z m0-64H192.12112v-32h640v32z m64 256h-32V704h32v288z m96-320h-90.864L992.12112 581.136V672z m0-160v25.904L858.02512 672h-132.768l160-160H992.12112z m-90.864-96L992.12112 325.136V416h-90.864zM336.12112 832h64a16 16 0 1 0 0-32h-64a16 16 0 1 0 0 32z m352 64h96a16 16 0 1 0 0-32h-96a16 16 0 1 0 0 32z" fill="#2B3139" /></svg>