<?xml version="1.0" standalone="no"?><!DOCTYPE svg PUBLIC "-//W3C//DTD SVG 1.1//EN" "http://www.w3.org/Graphics/SVG/1.1/DTD/svg11.dtd"><svg class="icon" width="200px" height="200.00px" viewBox="0 0 1024 1024" version="1.1" xmlns="http://www.w3.org/2000/svg"><path d="M48 448h928v448H48z" fill="#F27070" /><path d="M272 96h480v64H272z" fill="#606874" /><path d="M16 256h992v192H16z" fill="#F27070" /><path d="M48 896h96v-64H48v64z m832-64v64h96v-64h-96z" fill="#FFE386" /><path d="M208 784h608a16 16 0 1 0 0-32H208a16 16 0 1 0 0 32z m0 64h608a16 16 0 1 0 0-32H208a16 16 0 1 0 0 32z m784-608H768V96a16 16 0 0 0-16-16H272a16 16 0 0 0-16 16v144H32a32 32 0 0 0-32 32v160a32 32 0 0 0 32 32v432a16 16 0 0 0 16 16h32a32 32 0 0 0 32 32h64a32 32 0 0 0 32-32h608a32 32 0 0 0 32 32h64a32 32 0 0 0 32-32h32a16 16 0 0 0 16-16V464a32 32 0 0 0 32-32V272a32 32 0 0 0-32-32zM288 112h448v32H288V112z m0 64h448v64H288v-64zM128 880H64v-32h64v32z m832 0h-64v-32h64v32z m0-64h-64a32 32 0 0 0-32 32v32H160v-32a32 32 0 0 0-32-32H64V464h896v352z m32-384H32v-64h960v64z m0-96H32v-64h960v64z" fill="#2B3139" /><path d="M752 352v192h128V352h-128zM144 544h128V352H144v192z" fill="#D8EFFC" /><path d="M256 336h-96a32 32 0 0 0-32 32v160a32 32 0 0 0 32 32h96a32 32 0 0 0 32-32V368a32 32 0 0 0-32-32z m0 192h-96V368h96v160z m560-32a16 16 0 0 0 16-16v-64a16 16 0 1 0-32 0v64a16 16 0 0 0 16 16z m48-160h-96a32 32 0 0 0-32 32v160a32 32 0 0 0 32 32h96a32 32 0 0 0 32-32V368a32 32 0 0 0-32-32z m0 192h-96V368h96v160z m-656-32a16 16 0 0 0 16-16v-64a16 16 0 1 0-32 0v64a16 16 0 0 0 16 16z" fill="#2B3139" /></svg>